<?xml version="1.0" standalone="no"?>
<!DOCTYPE svg PUBLIC "-//W3C//DTD SVG 20010904//EN"
 "http://www.w3.org/TR/2001/REC-SVG-20010904/DTD/svg10.dtd">
<svg version="1.0" xmlns="http://www.w3.org/2000/svg"
 width="275.000000pt" height="275.000000pt" viewBox="0 0 275.000000 275.000000"
 preserveAspectRatio="xMidYMid meet">
<metadata>
Created by potrace 1.11, written by Peter Selinger 2001-2013
</metadata>
<g transform="translate(0.000000,275.000000) scale(0.100000,-0.100000)"
fill="#000000" stroke="none">
<path d="M2560 2726 c0 -19 4 -23 20 -19 15 4 21 -1 26 -23 3 -16 12 -33 18
-39 12 -10 21 -28 25 -50 2 -5 10 -18 18 -27 15 -17 15 -20 -2 -38 -10 -11
-13 -20 -7 -20 7 0 12 -18 12 -45 0 -39 4 -47 25 -57 26 -12 34 -43 13 -51 -7
-3 -1 -6 15 -6 l27 -1 0 200 0 200 -95 0 c-94 0 -95 0 -95 -24z"/>
<path d="M527 2480 c-6 -16 -14 -30 -18 -30 -29 0 -104 -211 -118 -330 -8 -70
-16 -312 -12 -397 1 -26 38 -63 63 -63 9 0 24 -12 32 -27 l14 -28 7 27 c10 41
10 62 -8 188 -9 64 -19 159 -23 211 -6 89 -4 106 26 220 18 68 43 152 56 187
28 74 28 72 8 72 -9 0 -21 -13 -27 -30z m-98 -667 c0 -25 -1 -26 -9 -8 -12 27
-12 35 0 35 6 0 10 -12 9 -27z m3 -65 c-9 -9 -12 -7 -12 12 0 19 3 21 12 12 9
-9 9 -15 0 -24z"/>
<path d="M2700 2260 c0 -5 5 -10 10 -10 6 0 10 5 10 10 0 6 -4 10 -10 10 -5 0
-10 -4 -10 -10z"/>
<path d="M2035 2159 c-4 -6 2 -13 14 -16 12 -3 21 -10 21 -15 0 -5 5 -6 10 -3
6 3 10 15 10 26 0 14 -7 19 -24 19 -14 0 -28 -5 -31 -11z"/>
<path d="M2110 2156 c0 -8 16 -23 35 -35 20 -11 38 -29 41 -38 4 -10 18 -48
32 -85 20 -54 28 -66 39 -57 18 16 119 -26 140 -58 12 -19 14 -39 9 -98 -5
-50 -3 -75 4 -75 5 0 10 8 10 18 0 10 7 27 15 39 12 18 22 21 50 16 19 -3 35
-2 35 3 0 5 4 35 10 67 5 32 7 64 4 71 -5 13 -138 36 -215 38 -44 1 -57 12
-65 57 -11 55 -33 101 -52 108 -9 3 -29 15 -44 25 -31 22 -48 23 -48 4z"/>
<path d="M850 2040 c-13 -9 -13 -10 0 -10 8 0 22 5 30 10 13 9 13 10 0 10 -8
0 -22 -5 -30 -10z"/>
<path d="M1831 2027 c-47 -16 -59 -38 -41 -73 30 -55 100 -53 100 2 0 19 4 24
18 22 9 -2 16 -10 15 -16 -2 -7 1 -12 7 -12 8 0 30 60 30 83 0 11 -91 7 -129
-6z"/>
<path d="M2014 1998 c3 -7 9 -21 12 -31 5 -15 13 -18 37 -13 42 9 46 15 18 37
-26 22 -76 26 -67 7z"/>
<path d="M885 1919 c-50 -6 -135 -42 -135 -58 0 -4 -9 -19 -21 -32 l-21 -24
22 -3 c13 -2 36 6 52 18 15 11 33 18 38 15 5 -3 15 3 22 15 12 19 29 28 27 13
-4 -25 4 -33 36 -33 23 0 37 6 44 19 9 16 7 17 -14 13 -18 -3 -25 0 -25 11 0
20 40 33 50 17 10 -16 40 -6 40 14 0 17 -46 23 -115 15z"/>
<path d="M2341 1854 c-19 -8 -39 -22 -46 -31 -7 -9 -17 -13 -23 -9 -7 4 -12 1
-12 -6 0 -9 19 -13 65 -14 l65 -1 0 38 c0 44 -1 44 -49 23z"/>
<path d="M290 1610 c0 -6 7 -10 15 -10 8 0 15 2 15 4 0 2 -7 6 -15 10 -8 3
-15 1 -15 -4z"/>
<path d="M496 1605 c-8 -21 -8 -113 1 -143 10 -40 23 -3 23 68 0 69 -12 106
-24 75z"/>
<path d="M2313 1525 c0 -22 2 -30 4 -17 2 12 2 30 0 40 -3 9 -5 -1 -4 -23z"/>
<path d="M2318 1440 c-4 -19 -9 -60 -12 -90 -4 -30 -15 -91 -26 -135 -22 -87
-27 -151 -10 -125 5 8 10 24 10 36 0 12 11 42 25 69 24 44 25 55 23 164 -2 77
-5 104 -10 81z"/>
<path d="M2720 1321 c0 -46 -4 -71 -12 -75 -10 -5 -10 -7 0 -12 20 -9 14 -35
-13 -56 -14 -11 -23 -24 -20 -28 3 -5 -3 -15 -15 -22 -11 -7 -20 -23 -20 -35
0 -18 -6 -23 -26 -23 -24 0 -25 -2 -23 -46 2 -34 -1 -49 -14 -59 -9 -7 -17
-22 -17 -34 0 -13 -6 -21 -17 -21 -26 -1 -63 -35 -63 -59 0 -12 -6 -21 -13
-21 -6 0 -22 -22 -34 -49 -19 -41 -30 -51 -68 -65 -35 -14 -45 -23 -45 -41 0
-20 -6 -23 -52 -27 -70 -7 -78 -3 -72 35 l5 32 -18 -25 c-10 -14 -28 -34 -40
-46 -13 -12 -23 -24 -23 -28 0 -4 -13 -21 -30 -39 -24 -26 -30 -28 -30 -14 0
11 6 31 14 45 19 37 46 101 46 109 0 17 -23 -21 -84 -140 -69 -134 -145 -246
-211 -309 -41 -40 -101 -72 -174 -94 -57 -18 -195 -9 -274 17 -31 10 -68 19
-81 19 -13 0 -35 9 -49 20 -14 11 -29 20 -34 20 -4 0 -35 27 -68 59 -44 44
-63 57 -72 49 -7 -6 -13 -17 -13 -24 0 -25 -21 -15 -58 27 -20 23 -66 71 -102
108 -85 88 -142 157 -157 190 -14 28 -31 55 -52 81 -15 20 -71 149 -71 165 0
6 -7 20 -16 31 -14 18 -15 16 -9 -24 9 -72 65 -251 92 -300 32 -56 46 -72 68
-72 8 0 20 -10 26 -23 14 -29 142 -139 174 -150 14 -5 25 -16 25 -26 0 -20
116 -131 137 -131 8 0 12 -4 8 -9 -5 -9 44 -51 59 -51 4 0 23 -11 44 -24 21
-13 53 -27 72 -31 19 -4 43 -14 52 -22 19 -17 137 -44 207 -48 58 -3 127 32
239 123 53 42 81 48 62 13 -5 -10 -6 -21 -3 -25 3 -3 1 -6 -4 -6 -6 0 -14 -18
-18 -40 -4 -22 -11 -42 -16 -46 -5 -3 -9 -15 -9 -27 1 -15 8 -7 25 28 13 28
24 55 24 61 1 6 23 49 51 95 27 46 50 87 50 91 0 4 13 2 30 -3 18 -7 27 -15
23 -22 -4 -7 1 -6 10 2 9 7 15 17 12 21 -7 11 22 33 35 25 5 -3 14 5 20 19 12
33 27 33 42 1 6 -14 15 -25 19 -25 4 0 12 -13 18 -30 5 -16 15 -30 22 -30 6 0
9 -8 6 -19 -2 -10 -1 -25 4 -32 11 -19 0 -32 -17 -18 -8 6 -27 9 -44 7 -24 -4
-30 -1 -30 14 0 15 -8 18 -50 18 l-50 0 0 -71 c0 -67 1 -70 23 -67 14 2 23 11
25 26 2 15 10 22 24 22 12 0 18 -3 15 -6 -3 -4 -2 -15 4 -25 13 -26 89 -27 89
-2 0 15 1 15 13 -1 9 -12 22 -16 38 -13 23 4 23 4 -3 6 -21 1 -29 7 -34 28 -9
34 6 56 42 64 l29 7 -33 1 c-26 1 -33 5 -30 18 5 24 19 25 55 3 22 -13 31 -25
27 -35 -3 -8 -11 -12 -17 -8 -6 3 -7 1 -3 -5 4 -7 -3 -10 -21 -9 -22 2 -28 -2
-28 -18 0 -11 8 -21 18 -23 9 -2 17 1 17 7 0 6 -7 8 -15 5 -10 -4 -15 0 -15
11 0 12 5 15 16 11 9 -3 20 -6 25 -6 6 0 7 -5 4 -10 -3 -6 -1 -10 4 -10 6 0
11 8 11 19 0 25 24 43 52 39 18 -2 23 -10 24 -34 1 -42 10 -64 26 -64 10 0 10
2 0 9 -10 6 -9 19 8 64 12 32 27 57 34 57 6 0 22 -27 34 -60 16 -46 18 -60 8
-60 -8 0 -16 7 -20 15 -6 16 -46 21 -46 6 0 -5 9 -7 20 -4 14 4 20 0 20 -11 0
-9 8 -16 20 -16 11 0 20 -7 20 -15 0 -8 9 -15 20 -15 11 0 20 7 20 15 0 21 56
20 64 -1 3 -8 14 -14 23 -13 10 2 37 -9 60 -24 79 -51 73 -109 73 668 0 611
-2 695 -15 695 -12 0 -15 -14 -15 -69z m-643 -993 c-3 -8 -6 -5 -6 6 -1 11 2
17 5 13 3 -3 4 -12 1 -19z m23 -128 c0 -5 -11 -10 -25 -10 -16 0 -25 -6 -25
-15 0 -8 9 -15 20 -15 11 0 20 -4 20 -10 0 -5 -9 -10 -20 -10 -15 0 -20 -7
-20 -25 0 -16 -6 -25 -15 -25 -12 0 -15 13 -15 60 l0 60 40 0 c22 0 40 -4 40
-10z m78 -66 c3 -40 3 -41 -33 -42 -36 -1 -38 1 -37 50 0 22 -5 28 -26 31 -15
2 0 3 33 3 l60 -1 3 -41z m406 14 c12 -34 -8 -61 -41 -55 -17 3 -23 0 -23 -14
0 -11 -4 -19 -10 -19 -6 0 -10 26 -10 59 l0 59 37 -1 c31 -2 39 -7 47 -29z
m94 19 c28 -22 7 -77 -30 -77 -10 0 -18 -7 -18 -15 0 -8 -7 -15 -15 -15 -12 0
-15 13 -15 59 l0 60 33 -1 c17 0 38 -5 45 -11z"/>
<path d="M2120 150 c-12 -8 -9 -10 13 -10 15 0 27 5 27 10 0 13 -20 13 -40 0z"/>
<path d="M2130 120 c0 -5 7 -10 15 -10 8 0 15 5 15 10 0 6 -7 10 -15 10 -8 0
-15 -4 -15 -10z"/>
<path d="M2528 148 c-7 -19 2 -38 18 -38 8 0 14 10 14 25 0 26 -24 35 -32 13z"/>
<path d="M2630 135 c0 -15 6 -25 14 -25 19 0 28 14 20 34 -10 25 -34 19 -34
-9z"/>
<path d="M1727 1306 c-17 -18 -47 -41 -65 -52 -28 -16 -36 -17 -53 -5 -16 9
-24 10 -32 2 -19 -19 17 -43 63 -45 35 -1 45 4 66 32 21 26 32 32 64 32 49 0
70 28 41 54 -26 24 -47 20 -84 -18z"/>
<path d="M1485 1303 c15 -16 55 -26 55 -14 0 6 -6 11 -14 11 -8 0 -23 3 -33 6
-12 5 -15 4 -8 -3z"/>
<path d="M1425 1290 c-4 -6 3 -10 14 -10 25 0 27 6 6 13 -8 4 -17 2 -20 -3z"/>
<path d="M551 1070 c0 -8 4 -24 9 -35 l9 -20 0 20 c0 11 -4 27 -9 35 -9 13
-10 13 -9 0z"/>
<path d="M1973 1061 c-13 -11 -47 -21 -81 -25 -67 -8 -77 -13 -61 -33 7 -8 9
-32 6 -63 -3 -28 -3 -50 0 -50 12 0 163 163 163 177 0 16 0 16 -27 -6z"/>
<path d="M2246 1049 c-31 -106 -33 -150 -2 -53 10 31 15 58 12 61 -3 3 -7 0
-10 -8z"/>
<path d="M1100 1008 c0 -10 51 -57 63 -58 4 0 7 6 7 14 0 7 15 17 33 21 28 6
29 8 12 14 -32 13 -115 19 -115 9z"/>
<path d="M2540 1000 c0 -5 5 -10 10 -10 6 0 10 5 10 10 0 6 -4 10 -10 10 -5 0
-10 -4 -10 -10z"/>
<path d="M1706 861 c-3 -5 10 -9 28 -8 19 0 33 5 30 9 -7 11 -51 10 -58 -1z"/>
<path d="M1658 843 c7 -3 16 -2 19 1 4 3 -2 6 -13 5 -11 0 -14 -3 -6 -6z"/>
<path d="M626 339 c-10 -104 -7 -165 9 -179 8 -7 15 -21 15 -31 0 -11 4 -19 9
-19 15 0 19 51 10 144 -15 159 -31 191 -43 85z"/>
<path d="M2427 166 c-4 -10 -5 -21 -2 -24 9 -9 17 6 13 25 -3 17 -4 17 -11 -1z"/>
<path d="M2315 150 c-3 -5 3 -10 14 -10 12 0 21 5 21 10 0 6 -6 10 -14 10 -8
0 -18 -4 -21 -10z"/>
<path d="M2314 123 c10 -11 36 -12 36 -2 0 5 -10 9 -22 9 -12 0 -18 -3 -14 -7z"/>
<path d="M2276 102 c-2 -4 4 -8 14 -8 10 0 16 4 14 8 -3 4 -9 8 -14 8 -5 0
-11 -4 -14 -8z"/>
</g>
</svg>
